PathFileType	4	(X/Y/Z)	c:/Users/goper/Files/vsCode/490R/osim_files/A01/A01_Slow_02.trc
DataRate	CameraRate	NumFrames	NumMarkers	Units                	OrigDataRate	OrigDataStartFrame	OrigNumFrames
120.00	120.00	7	36	mm	120.0	2049	2341
                Frame#	Time	Mobility_markerset:LPSIS			Mobility_markerset:LASIS			Mobility_markerset:LTH1			Mobility_markerset:LTH2			Mobility_markerset:LTH3			Mobility_markerset:LTH4			Mobility_markerset:LLFE			Mobility_markerset:LMFE			Mobility_markerset:LSH1			Mobility_markerset:LSH2			Mobility_markerset:LSH3			Mobility_markerset:LSH4			Mobility_markerset:LLMAL			Mobility_markerset:LMMAL			Mobility_markerset:LCAL			Mobility_markerset:LMTP5			Mobility_markerset:LTOE			Mobility_markerset:LMTP1			Mobility_markerset:RPSIS			Mobility_markerset:RASIS			Mobility_markerset:RTH1			Mobility_markerset:RTH2			Mobility_markerset:RTH3			Mobility_markerset:RTH4			Mobility_markerset:RLFE			Mobility_markerset:RMFE			Mobility_markerset:RSH1			Mobility_markerset:RSH2			Mobility_markerset:RSH3			Mobility_markerset:RSH4			Mobility_markerset:RLMAL			Mobility_markerset:RMMAL			Mobility_markerset:RCAL			Mobility_markerset:RMTP1			Mobility_markerset:RTOE			Mobility_markerset:RMTP5		
		X1	Y1	Z1	X2	Y2	Z2	X3	Y3	Z3	X4	Y4	Z4	X5	Y5	Z5	X6	Y6	Z6	X7	Y7	Z7	X8	Y8	Z8	X9	Y9	Z9	X10	Y10	Z10	X11	Y11	Z11	X12	Y12	Z12	X13	Y13	Z13	X14	Y14	Z14	X15	Y15	Z15	X16	Y16	Z16	X17	Y17	Z17	X18	Y18	Z18	X19	Y19	Z19	X20	Y20	Z20	X21	Y21	Z21	X22	Y22	Z22	X23	Y23	Z23	X24	Y24	Z24	X25	Y25	Z25	X26	Y26	Z26	X27	Y27	Z27	X28	Y28	Z28	X29	Y29	Z29	X30	Y30	Z30	X31	Y31	Z31	X32	Y32	Z32	X33	Y33	Z33	X34	Y34	Z34	X35	Y35	Z35	X36	Y36	Z36

2049	17.06667	0.00000	0.00000	0.00000	-3864.73389	1009.32721	393.54416	-3789.42578	680.96198	400.17899	-3808.16968	638.03528	390.07938	-3846.92407	696.28516	411.97678	0.00000	0.00000	0.00000	-3860.68384	538.12885	347.30081	-3914.75366	560.62726	221.45145	0.00000	0.00000	0.00000	0.00000	0.00000	0.00000	-3885.16553	369.40811	316.40167	-3878.81055	326.90927	310.21100	-3842.94824	92.35828	245.57303	-3861.45264	97.37603	167.42482	0.00000	0.00000	0.00000	-3974.73022	46.24733	305.77338	-4020.28589	69.39986	251.63806	-4008.12964	57.51397	211.33562	0.00000	0.00000	0.00000	-3900.49780	992.44354	134.87927	-3822.69727	672.05011	5.50128	-3838.68994	630.42700	8.81719	-3883.39258	687.54901	17.32064	-3888.43701	644.73981	17.31351	-3884.65405	491.05606	41.75757	-3901.96387	493.42032	166.44965	0.00000	0.00000	0.00000	-3646.08960	395.28946	18.86293	0.00000	0.00000	0.00000	-3677.39844	352.10052	15.99086	-3519.87134	265.47168	37.49261	-3545.73047	259.80072	121.93700	-3471.44238	301.70120	80.73970	-3547.93848	117.94469	144.73967	-3579.72827	91.27354	102.38545	-3533.19238	118.46259	32.22879
2050	17.07500	0.00000	0.00000	0.00000	-3869.63818	1009.31238	396.45596	0.00000	0.00000	0.00000	-3810.87036	637.92200	391.75717	-3849.95142	695.99811	414.00934	0.00000	0.00000	0.00000	0.00000	0.00000	0.00000	-3917.55103	560.47638	223.21609	-3828.62744	377.15988	302.48279	0.00000	0.00000	0.00000	-3887.09448	369.20001	317.67804	-3880.36011	326.68903	311.23041	-3843.13452	92.52322	245.75681	-3861.62646	97.57991	167.50587	0.00000	0.00000	0.00000	-3974.80273	46.15990	305.81888	-4020.75439	69.34851	252.43640	-4008.23340	57.44662	211.34540	0.00000	0.00000	0.00000	-3907.80371	992.12323	137.71605	-3835.95044	672.50543	7.96996	-3852.78101	631.47809	11.36548	-3896.19165	689.19025	20.17622	-3902.12476	646.54767	20.14979	-3901.28955	493.06421	45.63205	-3917.36743	495.92743	170.18054	0.00000	0.00000	0.00000	-3663.72852	397.04904	19.30947	0.00000	0.00000	0.00000	-3695.68677	354.32703	17.61047	-3534.18091	266.06522	38.75551	-3562.44434	261.22064	121.76088	-3487.47949	301.92917	80.27446	-3567.14771	118.92718	143.26125	-3600.18359	93.78307	101.17578	-3547.61890	114.87830	33.43731
2051	17.08333	0.00000	0.00000	0.00000	-3874.20142	1009.48920	399.36807	0.00000	0.00000	0.00000	-3813.65405	637.79407	393.28824	-3852.67188	695.45111	416.01108	0.00000	0.00000	0.00000	-3866.27148	537.77173	350.72015	-3920.36987	560.34753	224.92935	-3830.50269	377.33920	303.64859	0.00000	0.00000	0.00000	-3889.01440	369.08682	318.61075	-3881.78467	326.44791	312.12350	-3843.29590	92.67609	245.95728	-3861.46509	97.65092	167.08159	0.00000	0.00000	0.00000	-3974.89331	46.10048	305.85864	-4020.89014	69.17743	252.47011	-4008.32593	57.37921	211.36415	0.00000	0.00000	0.00000	-3915.06177	991.72156	140.70917	-3849.20386	673.38702	10.66784	-3866.48486	632.68652	14.05582	-3908.89136	690.99304	23.24868	-3915.73853	648.62097	23.15365	-3919.14185	495.90659	48.33982	-3932.22388	498.58255	174.33826	0.00000	0.00000	0.00000	-3681.67383	397.98376	19.96644	0.00000	0.00000	0.00000	-3713.95020	355.30637	19.09258	-3554.81079	267.34344	36.61808	-3580.05933	261.60159	121.62602	-3504.27490	301.12064	79.99607	-3587.87500	119.83760	142.11850	-3621.21362	95.22667	99.74893	-3569.78125	116.75371	31.47483
2052	17.09167	0.00000	0.00000	0.00000	-3878.88696	1010.02258	402.20221	0.00000	0.00000	0.00000	-3816.30957	637.68732	394.52069	-3855.42871	694.98645	417.85880	0.00000	0.00000	0.00000	-3868.91235	537.62506	352.20676	-3923.10400	560.15186	226.37659	-3832.18555	377.43314	304.57291	0.00000	0.00000	0.00000	-3890.65576	368.83911	319.47037	-3883.25879	326.29562	312.99268	-3843.48291	92.82219	246.15442	-3861.58813	97.85269	167.16017	0.00000	0.00000	0.00000	-3974.96362	46.01085	305.92175	-4021.00928	68.99452	252.49724	-4008.41968	57.30670	211.39304	-3679.13647	1043.61292	170.07030	-3922.36938	991.46686	143.90512	-3862.40356	674.30469	13.70790	-3880.26123	633.98328	17.25008	-3921.60474	692.98547	26.56143	-3929.31689	650.77441	26.47199	0.00000	0.00000	0.00000	-3946.75220	501.36868	178.85684	0.00000	0.00000	0.00000	-3699.84521	398.06979	20.85596	0.00000	0.00000	0.00000	-3732.44995	355.65305	20.64472	-3573.39380	266.83768	36.41806	-3598.17896	261.13614	121.74895	-3521.53418	299.23853	79.72763	-3608.93481	119.37266	140.89400	-3642.33008	95.40224	98.83891	-3591.70703	116.95361	30.07271
2053	17.10000	0.00000	0.00000	0.00000	-3883.38281	1010.89819	405.07773	0.00000	0.00000	0.00000	-3818.84937	637.68762	395.68921	-3858.30420	694.81116	419.42502	0.00000	0.00000	0.00000	-3871.53955	537.53284	353.58823	-3925.63525	559.96490	227.71428	-3833.81812	377.52966	305.50699	0.00000	0.00000	0.00000	-3892.49146	368.81772	320.46423	-3884.76611	326.22952	313.75247	-3842.93774	93.04312	246.95827	-3861.80493	98.14958	167.25021	0.00000	0.00000	0.00000	-3975.07275	45.95121	305.99005	-4021.12158	68.84180	252.53401	-4008.49414	57.23767	211.40646	-3685.83813	1044.31213	170.92752	-3929.58252	991.20709	147.31322	-3875.63403	675.44275	17.11730	-3894.36670	635.79865	21.04049	-3934.33838	695.11920	30.11288	-3943.88647	653.04834	29.42777	-3951.59839	499.84427	57.93067	-3960.98364	504.19662	183.54027	0.00000	0.00000	0.00000	-3717.91821	397.39850	21.92130	0.00000	0.00000	0.00000	-3752.23706	354.77454	22.66861	-3592.27344	265.29572	36.38045	-3616.61011	259.74158	122.01250	-3538.77075	295.80182	79.41346	-3631.65674	118.65275	140.45772	-3665.44067	95.59113	97.80650	-3614.75146	116.44288	28.75842
2054	17.10833	0.00000	0.00000	0.00000	-3887.72241	1011.91193	407.87845	0.00000	0.00000	0.00000	-3821.32275	637.77466	396.63687	-3861.00146	694.61200	420.86438	0.00000	0.00000	0.00000	-3874.08789	537.48260	354.84143	-3928.14893	559.85486	228.94620	-3835.54712	377.71094	306.36038	0.00000	0.00000	0.00000	-3893.97363	368.61526	321.12720	-3886.08618	326.07297	314.38721	-3844.12280	93.38280	246.48015	-3861.97192	98.39362	167.32498	0.00000	0.00000	0.00000	-3975.15137	45.90782	306.02271	-4021.23486	68.72260	252.53685	-4008.59521	57.20250	211.42738	-3693.29736	1044.92761	171.87369	-3936.78906	991.14191	150.87648	-3889.04492	676.46948	20.45081	-3908.02148	636.84821	24.85424	-3947.02295	697.32361	33.86868	-3957.10376	656.35876	37.08320	-3967.87061	502.50449	62.63787	-3974.83398	506.99731	188.40839	0.00000	0.00000	0.00000	-3736.03735	396.32623	23.42273	0.00000	0.00000	0.00000	-3770.57495	354.32349	25.04726	-3611.68164	262.91736	36.32332	-3635.16919	256.95648	122.47533	-3556.56567	291.44101	79.26083	-3654.63550	116.78436	139.49997	-3689.67944	95.40403	97.04852	-3639.17529	115.41319	27.56032
2055	17.11667	0.00000	0.00000	0.00000	-3892.12305	1013.25409	410.80893	0.00000	0.00000	0.00000	-3823.81006	637.81293	397.47043	-3863.59229	694.30920	422.12497	0.00000	0.00000	0.00000	0.00000	0.00000	0.00000	-3930.73169	559.75385	230.06487	-3837.25903	377.95477	307.14734	0.00000	0.00000	0.00000	-3895.47192	368.20844	321.97458	-3887.48950	326.01279	315.04257	-3844.31519	93.56661	246.66524	-3862.42188	98.69714	167.87094	0.00000	0.00000	0.00000	-3975.23291	45.83372	306.08099	-4021.35156	68.56773	252.56039	-4008.69238	57.13686	211.43303	-3699.87036	1045.64111	172.52007	-3944.12695	991.31012	154.67201	-3901.77051	677.52277	24.50283	-3921.44800	638.96173	28.67682	-3959.75586	699.48834	37.93193	-3970.14844	658.31042	41.24898	-3983.63281	505.11417	67.69931	-3988.32031	509.86292	193.52182	0.00000	0.00000	0.00000	-3754.02710	394.86636	25.19237	0.00000	0.00000	0.00000	-3788.95947	353.67599	27.63745	-3631.72852	259.68472	36.51690	-3652.16846	255.26421	123.73849	-3575.45776	286.71982	78.44798	-3677.08057	112.97230	138.20717	0.00000	0.00000	0.00000	-3664.77979	113.83334	26.65199
